Coordinates	
version=1	
nRows=337	
nColumns=2	
inDegrees=yes	
endheader	
time	flexion
0	0
0.00279366	0.021547964
0.006663885	0.118775494
0.010534111	0.286229314
0.012042718	0.368528741
0.013551324	0.459546855
0.015059931	0.558741256
0.016568537	0.665579148
0.018077144	0.779543735
0.01958575	0.900138832
0.021094356	1.026891771
0.022602963	1.15935488
0.024111569	1.297105141
0.025620176	1.439743131
0.027128782	1.586892122
0.028637389	1.738197302
0.030145995	1.893323927
0.031654602	2.05195603
0.033163208	2.213795266
0.034671815	2.378559849
0.036180421	2.545983586
0.037689028	2.715815017
0.039197634	2.887816637
0.04070624	3.061764209
0.042214847	3.23744615
0.043723453	3.414662997
0.04523206	3.593226945
0.046740666	3.772961436
0.048249273	3.953700781
0.049757879	4.13528976
0.051266486	4.31758302
0.052775092	4.500444398
0.054283699	4.68374619
0.055792305	4.86736747
0.057300912	5.051193021
0.058809518	5.235112917
0.060318124	5.41902227
0.061826731	5.602820996
0.063335337	5.786413602
0.064843944	5.969708977
0.06635255	6.15262021
0.067861157	6.335064405
0.069369763	6.516962511
0.07087837	6.698239169
0.072386976	6.878822552
0.073895583	7.058644226
0.075404189	7.237639012
0.076912796	7.415744304
0.078421402	7.592900985
0.079930009	7.769052974
0.081438615	7.944146841
0.082947221	8.118132061
0.084455828	8.290960596
0.085964434	8.462586836
0.087473041	8.632967515
0.088981647	8.802061644
0.090490254	8.969830422
0.09199886	9.136237168
0.093507467	9.301247245
0.095016073	9.464827987
0.09652468	9.626948634
0.098033286	9.787580262
0.099541893	9.946695725
0.101050499	10.10426959
0.102559105	10.26027807
0.104067712	10.41469901
0.105576318	10.56751176
0.107084925	10.71869719
0.108593531	10.86823762
0.110102138	11.01611676
0.111610744	11.16231967
0.113119351	11.3068325
0.114627957	11.44964289
0.116136564	11.5907398
0.11764517	11.73011334
0.119153777	11.86775475
0.120662383	12.00365636
0.122170989	12.13781158
0.123679596	12.2702182
0.125188202	12.40087395
0.126696809	12.52977346
0.128205415	12.65691486
0.129714022	12.7822963
0.131222628	12.90591613
0.132731235	13.02777335
0.134239841	13.14786829
0.135748448	13.26620245
0.137257054	13.38277815
0.138765661	13.49759845
0.140274267	13.61066717
0.141782873	13.72198883
0.14329148	13.83156864
0.144800086	13.9394125
0.146308693	14.04552692
0.147817299	14.14991904
0.149325906	14.25259659
0.150834512	14.35356788
0.152343119	14.45284153
0.153851725	14.5504268
0.155360332	14.64633362
0.156868938	14.74057238
0.158377545	14.83315369
0.159886151	14.92408889
0.161394758	15.0133898
0.162903364	15.10106865
0.16441197	15.18713805
0.165920577	15.27161093
0.167429183	15.35450062
0.16893779	15.43582077
0.170446396	15.51558535
0.171955003	15.59380864
0.173463609	15.67050522
0.174972216	15.74568994
0.176480822	15.81937793
0.177989429	15.89158455
0.179498035	15.96232539
0.181006642	16.03161623
0.182515248	16.09947303
0.184023854	16.16591205
0.185532461	16.23094975
0.187041067	16.2946027
0.188549674	16.35688769
0.19005828	16.41782159
0.191566887	16.47742139
0.193075493	16.5357042
0.1945841	16.59268721
0.196092706	16.64838773
0.197601313	16.70282312
0.199109919	16.75601082
0.200618526	16.80796834
0.202127132	16.8587132
0.203635738	16.90826299
0.205144345	16.95663531
0.206652951	17.00384779
0.208161558	17.04991804
0.209670164	17.09486369
0.211178771	17.13870235
0.212687377	17.18145163
0.214195984	17.22312907
0.21570459	17.26375221
0.217213197	17.30333852
0.218721803	17.34190542
0.22023041	17.37947027
0.221739016	17.41605036
0.223247623	17.45166292
0.224756229	17.48632507
0.226264835	17.52005385
0.227773442	17.55286623
0.229282048	17.58477905
0.230790655	17.61580904
0.232299261	17.64597283
0.233807868	17.67528694
0.235316474	17.70376774
0.236825081	17.73143149
0.238333687	17.75829432
0.239842294	17.78437221
0.2413509	17.80968099
0.242859507	17.83423637
0.244368113	17.85805389
0.245876719	17.88114895
0.247385326	17.90353676
0.248893932	17.92523241
0.250402539	17.9462508
0.251911145	17.96660668
0.253419752	17.98631462
0.254928358	18.00538902
0.256436965	18.02384409
0.257945571	18.04169391
0.259454178	18.05895232
0.260962784	18.07563303
0.262471391	18.09174954
0.263979997	18.10731518
0.265488603	18.12234309
0.26699721	18.13684623
0.268505816	18.15083736
0.270014423	18.16432906
0.271523029	18.17733374
0.273031636	18.18986358
0.274540242	18.20193061
0.276048849	18.21354664
0.277557455	18.22472332
0.279066062	18.23547208
0.280574668	18.24580419
0.282083275	18.25573069
0.283591881	18.26526249
0.285100487	18.27441024
0.286609094	18.28318447
0.2881177	18.29159547
0.289626307	18.29965337
0.291134913	18.30736812
0.29264352	18.31474947
0.294152126	18.32180699
0.295660733	18.32855007
0.297169339	18.3349879
0.298677946	18.3411295
0.300186552	18.34698371
0.301695159	18.35255921
0.303203765	18.35786446
0.304712372	18.36290779
0.306220978	18.36769732
0.307729584	18.37224103
0.309238191	18.37654671
0.310746797	18.38062198
0.312255404	18.38447431
0.31376401	18.38811098
0.315272617	18.39153912
0.316781223	18.39476571
0.31828983	18.39779755
0.319798436	18.40064129
0.321307043	18.40330342
0.322815649	18.4057903
0.324324256	18.4081081
0.325832862	18.41026288
0.327341468	18.41226051
0.328850075	18.41410676
0.330358681	18.41580722
0.331867288	18.41736735
0.333375894	18.41879248
0.334884501	18.4200878
0.336393107	18.42125836
0.337901714	18.42230908
0.33941032	18.42324474
0.340918927	18.42407002
0.342427533	18.42478943
0.34393614	18.4254074
0.345444746	18.42592821
0.346953352	18.42635604
0.348461959	18.42669493
0.349970565	18.42694882
0.351479172	18.42712153
0.352987778	18.42721678
0.354496385	18.42723817
0.356004991	18.4271892
0.357513598	18.42707326
0.359022204	18.42689364
0.360530811	18.42665353
0.362039417	18.42635602
0.363548024	18.4260041
0.36505663	18.42560068
0.366565237	18.42514856
0.368073843	18.42465045
0.369582449	18.424109
0.371091056	18.42352673
0.372599662	18.42290611
0.374108269	18.42224951
0.375616875	18.42155923
0.377125482	18.42083748
0.378634088	18.4200864
0.380142695	18.41930805
0.381651301	18.41850442
0.383159908	18.41767744
0.384668514	18.41682894
0.386177121	18.41596071
0.387685727	18.41507447
0.389194333	18.41417185
0.39070294	18.41325445
0.392211546	18.41232379
0.393720153	18.41138133
0.395228759	18.41042848
0.396737366	18.40946658
0.398245972	18.40849693
0.399754579	18.40752078
0.401263185	18.40653929
0.402771792	18.40555362
0.404280398	18.40456485
0.405789005	18.40357401
0.407297611	18.4025821
0.408806217	18.40159006
0.410314824	18.4005988
0.41182343	18.39960918
0.413332037	18.39862201
0.414840643	18.39763806
0.41634925	18.39665809
0.417857856	18.39568279
0.419366463	18.39471282
0.420875069	18.39374881
0.422383676	18.39279135
0.423892282	18.39184101
0.425400889	18.39089832
0.426909495	18.38996376
0.428418102	18.38903781
0.429926708	18.38812091
0.431435314	18.38721346
0.432943921	18.38631585
0.434452527	18.38542843
0.435961134	18.38455153
0.43746974	18.38368546
0.438978347	18.38283049
0.440486953	18.3819869
0.44199556	18.38115492
0.443504166	18.38033475
0.445012773	18.37952661
0.446521379	18.37873066
0.448029986	18.37794707
0.449538592	18.37717597
0.451047198	18.37641748
0.452555805	18.37567171
0.454064411	18.37493875
0.455573018	18.37421868
0.457081624	18.37351155
0.458590231	18.3728174
0.460098837	18.37213628
0.461607444	18.3714682
0.46311605	18.37081316
0.464624657	18.37017116
0.466133263	18.36954218
0.46764187	18.3689262
0.469150476	18.36832319
0.470659082	18.36773308
0.472167689	18.36715583
0.473676295	18.36659137
0.475184902	18.36603964
0.476693508	18.36550054
0.478202115	18.36497399
0.479710721	18.36445989
0.481219328	18.36395815
0.482727934	18.36346865
0.484236541	18.36299129
0.485745147	18.36252593
0.487253754	18.36207246
0.48876236	18.36163075
0.490270966	18.36120067
0.491779573	18.36078206
0.493288179	18.36037481
0.494796786	18.35997875
0.496305392	18.35959375
0.497813999	18.35921964
0.499322605	18.35885628
0.500831212	18.3585035
0.502339818	18.35816116
0.503848425	18.35782909
0.505357031	18.35750712
0.506865638	18.35719509
0.508374244	18.35689284
0.509882851	18.35660021
0.511391457	18.35631701
0.512900063	18.35604309
